<svg width="42px" height="52px" viewBox="0 0 21 25" version="1.1" xmlns="http://www.w3.org/2000/svg" xmlns:xlink="http://www.w3.org/1999/xlink">
    <g id="Page-1" stroke="none" stroke-width="1" fill="none" fill-rule="evenodd">
        <path d="M10.5,1.6 C7.29036034,1.6 4.64648287,4.6183258 4.60060619,8.4 L16.3993938,8.4 C16.3535171,4.6183258 13.7096397,1.6 10.5,1.6 Z M3.4474665,9.6 L3.41518915,9.03417106 C3.40507688,8.85690071 3.4,8.67878095 3.4,8.5 C3.4,4.0440531 6.55817935,0.4 10.5,0.4 C14.4418206,0.4 17.6,4.0440531 17.6,8.5 C17.6,8.67878095 17.5949231,8.85690071 17.5848109,9.03417106 L17.5525335,9.6 L3.4474665,9.6 Z M19.1093638,9.60089815 C19.1095767,9.59637884 19.1092978,9.59159151 19.109,9.58647974 L19.109,9.59466911 C19.1091249,9.59681091 19.1092461,9.59888639 19.1093638,9.60089815 Z M19.1137785,9.66215698 C19.1146026,9.67118512 19.1153369,9.67454651 19.1166636,9.68061913 C19.1150665,9.6728505 19.1141547,9.66841593 19.1132436,9.65916249 L19.1137785,9.66215698 Z M1.6,9.60006905 L1.6,23.6024797 L19.109,23.6024797 L19.109,9.60092222 L1.6,9.60006905 Z M1.59939174,9.600069 C1.59893793,9.59567197 1.59946112,9.59114377 1.6,9.58647974 L1.6,9.59480353 C1.59979486,9.5965802 1.59959212,9.59833507 1.59939174,9.600069 Z M20.309,23.6184797 C20.309,24.2718506 19.7783708,24.8024797 19.125,24.8024797 L1.585,24.8024797 C0.930942563,24.8024797 0.4,24.272164 0.4,23.6184797 L0.4,9.58647974 C0.401874146,9.25892137 0.521129512,8.95986976 0.744735931,8.73821567 C0.988257209,8.49469439 1.31824169,8.37979881 1.613,8.40147974 L19.0553287,8.40292857 C19.3899108,8.37963488 19.7218948,8.49484643 19.9652641,8.73821567 C20.1885204,8.96147198 20.3082253,9.26105993 20.3080528,9.57019657 C20.3082491,9.57356468 20.3085649,14.2563257 20.309,23.6184797 Z M0.419117427,9.43347631 C0.422702788,9.41326727 0.425880909,9.40591438 0.431790021,9.39224308 C0.426825193,9.40327674 0.424044504,9.40945645 0.420916144,9.42722959 L0.419117427,9.43347631 Z" id="Combined-Shape" fill="#FFFFFF" fill-rule="nonzero"></path>
    </g>
</svg>