<svg class="svg-icon icon-search" width="20px" height="20px" viewBox="0 0 20 20" version="1.1" xmlns="http://www.w3.org/2000/svg" xmlns:xlink="http://www.w3.org/1999/xlink">
    <g id="Page-1" stroke="none" stroke-width="1" fill="none" fill-rule="evenodd">
        <g id="icon-search" fill="currentColor" fill-rule="nonzero">
            <path d="M19.129,18.164 L14.611,13.644 C15.763,12.271 16.463,10.501 16.463,8.567 C16.463,4.206 12.928,0.671 8.567,0.671 C4.206,0.671 0.671,4.206 0.671,8.567 C0.671,12.928 4.206,16.463 8.567,16.463 C10.501,16.463 12.272,15.765 13.645,14.61 L18.165,19.129 C18.431,19.397 18.864,19.397 19.13,19.129 C19.396,18.863 19.396,18.431 19.129,18.164 Z M8.53051964,15.2499971 C4.85786268,15.2499971 1.88000488,12.2723698 1.88000488,8.59999704 C1.88000488,4.92762429 4.85786268,1.94999695 8.53051964,1.94999695 C12.2031766,1.94999695 15.1800051,4.92762429 15.1800051,8.59999704 C15.1800051,12.2723698 12.2031766,15.2499971 8.53051964,15.2499971 Z" id="Shape"></path>
        </g>
    </g>
</svg>